<svg id="visual" viewBox="0 0 900 600" width="900" height="600" xmlns="http://www.w3.org/2000/svg" xmlns:xlink="http://www.w3.org/1999/xlink" version="1.1"><g stroke-width="1" stroke-linejoin="bevel"><path d="M506 274L463 209L392 323Z" fill="#00101c" stroke="#00101c"></path><path d="M392 323L469 371L506 274Z" fill="#0c2435" stroke="#0c2435"></path><path d="M463 209L330 216L392 323Z" fill="#15384f" stroke="#15384f"></path><path d="M368 178L330 216L463 209Z" fill="#1d4e6b" stroke="#1d4e6b"></path><path d="M392 323L434 404L469 371Z" fill="#1d4e6b" stroke="#1d4e6b"></path><path d="M334 415L434 404L392 323Z" fill="#277297" stroke="#277297"></path><path d="M330 216L296 314L392 323Z" fill="#00101c" stroke="#00101c"></path><path d="M487 473L563 371L469 371Z" fill="#1d4e6b" stroke="#1d4e6b"></path><path d="M469 371L563 371L506 274Z" fill="#15384f" stroke="#15384f"></path><path d="M296 314L334 415L392 323Z" fill="#1d4e6b" stroke="#1d4e6b"></path><path d="M637 191L517 109L463 209Z" fill="#081a28" stroke="#081a28"></path><path d="M463 209L407 84L368 178Z" fill="#205a7a" stroke="#205a7a"></path><path d="M637 191L463 209L506 274Z" fill="#297ea6" stroke="#297ea6"></path><path d="M563 371L624 284L506 274Z" fill="#081a28" stroke="#081a28"></path><path d="M517 109L407 84L463 209Z" fill="#19435d" stroke="#19435d"></path><path d="M368 178L288 79L330 216Z" fill="#081a28" stroke="#081a28"></path><path d="M403 533L487 473L434 404Z" fill="#246688" stroke="#246688"></path><path d="M434 404L487 473L469 371Z" fill="#277297" stroke="#277297"></path><path d="M624 284L637 191L506 274Z" fill="#1d4e6b" stroke="#1d4e6b"></path><path d="M730 425L680 275L624 284Z" fill="#205a7a" stroke="#205a7a"></path><path d="M624 284L680 275L637 191Z" fill="#15384f" stroke="#15384f"></path><path d="M730 425L624 284L563 371Z" fill="#0c2435" stroke="#0c2435"></path><path d="M407 84L288 79L368 178Z" fill="#297ea6" stroke="#297ea6"></path><path d="M330 216L187 237L296 314Z" fill="#081a28" stroke="#081a28"></path><path d="M227 125L187 237L330 216Z" fill="#205a7a" stroke="#205a7a"></path><path d="M296 314L168 415L334 415Z" fill="#0c2435" stroke="#0c2435"></path><path d="M288 79L227 125L330 216Z" fill="#246688" stroke="#246688"></path><path d="M221 502L339 510L334 415Z" fill="#277297" stroke="#277297"></path><path d="M334 415L339 510L434 404Z" fill="#1d4e6b" stroke="#1d4e6b"></path><path d="M339 510L403 533L434 404Z" fill="#205a7a" stroke="#205a7a"></path><path d="M187 237L178 334L296 314Z" fill="#297ea6" stroke="#297ea6"></path><path d="M680 275L700 196L637 191Z" fill="#205a7a" stroke="#205a7a"></path><path d="M637 191L629 75L517 109Z" fill="#00101c" stroke="#00101c"></path><path d="M513 0L407 84L517 109Z" fill="#277297" stroke="#277297"></path><path d="M513 0L410 0L407 84Z" fill="#277297" stroke="#277297"></path><path d="M407 84L292 0L288 79Z" fill="#19435d" stroke="#19435d"></path><path d="M700 196L629 75L637 191Z" fill="#297ea6" stroke="#297ea6"></path><path d="M522 600L602 501L487 473Z" fill="#081a28" stroke="#081a28"></path><path d="M487 473L602 501L563 371Z" fill="#297ea6" stroke="#297ea6"></path><path d="M629 75L513 0L517 109Z" fill="#15384f" stroke="#15384f"></path><path d="M70 386L168 415L178 334Z" fill="#246688" stroke="#246688"></path><path d="M178 334L168 415L296 314Z" fill="#205a7a" stroke="#205a7a"></path><path d="M410 0L292 0L407 84Z" fill="#246688" stroke="#246688"></path><path d="M288 79L238 0L227 125Z" fill="#15384f" stroke="#15384f"></path><path d="M339 510L393 600L403 533Z" fill="#205a7a" stroke="#205a7a"></path><path d="M168 415L221 502L334 415Z" fill="#205a7a" stroke="#205a7a"></path><path d="M602 501L730 425L563 371Z" fill="#205a7a" stroke="#205a7a"></path><path d="M680 275L770 296L700 196Z" fill="#1d4e6b" stroke="#1d4e6b"></path><path d="M291 600L393 600L339 510Z" fill="#19435d" stroke="#19435d"></path><path d="M403 533L522 600L487 473Z" fill="#277297" stroke="#277297"></path><path d="M730 425L770 296L680 275Z" fill="#15384f" stroke="#15384f"></path><path d="M678 0L631 0L629 75Z" fill="#19435d" stroke="#19435d"></path><path d="M737 62L629 75L700 196Z" fill="#15384f" stroke="#15384f"></path><path d="M629 75L631 0L513 0Z" fill="#246688" stroke="#246688"></path><path d="M187 237L103 302L178 334Z" fill="#1d4e6b" stroke="#1d4e6b"></path><path d="M97 227L103 302L187 237Z" fill="#1d4e6b" stroke="#1d4e6b"></path><path d="M97 227L187 237L227 125Z" fill="#15384f" stroke="#15384f"></path><path d="M292 0L238 0L288 79Z" fill="#277297" stroke="#277297"></path><path d="M393 600L522 600L403 533Z" fill="#1d4e6b" stroke="#1d4e6b"></path><path d="M602 501L723 528L730 425Z" fill="#00101c" stroke="#00101c"></path><path d="M99 64L97 227L227 125Z" fill="#15384f" stroke="#15384f"></path><path d="M770 296L771 186L700 196Z" fill="#205a7a" stroke="#205a7a"></path><path d="M221 502L291 600L339 510Z" fill="#246688" stroke="#246688"></path><path d="M522 600L593 600L602 501Z" fill="#297ea6" stroke="#297ea6"></path><path d="M737 62L678 0L629 75Z" fill="#277297" stroke="#277297"></path><path d="M771 186L737 62L700 196Z" fill="#246688" stroke="#246688"></path><path d="M701 600L723 528L602 501Z" fill="#1d4e6b" stroke="#1d4e6b"></path><path d="M730 425L833 404L770 296Z" fill="#00101c" stroke="#00101c"></path><path d="M0 308L70 386L103 302Z" fill="#297ea6" stroke="#297ea6"></path><path d="M103 302L70 386L178 334Z" fill="#246688" stroke="#246688"></path><path d="M168 415L99 486L221 502Z" fill="#205a7a" stroke="#205a7a"></path><path d="M221 502L223 600L291 600Z" fill="#081a28" stroke="#081a28"></path><path d="M771 186L801 139L737 62Z" fill="#112e42" stroke="#112e42"></path><path d="M900 215L801 139L771 186Z" fill="#112e42" stroke="#112e42"></path><path d="M84 600L223 600L221 502Z" fill="#277297" stroke="#277297"></path><path d="M138 0L99 64L227 125Z" fill="#205a7a" stroke="#205a7a"></path><path d="M97 227L0 308L103 302Z" fill="#297ea6" stroke="#297ea6"></path><path d="M70 386L99 486L168 415Z" fill="#1d4e6b" stroke="#1d4e6b"></path><path d="M238 0L138 0L227 125Z" fill="#112e42" stroke="#112e42"></path><path d="M723 528L791 490L730 425Z" fill="#112e42" stroke="#112e42"></path><path d="M770 296L900 215L771 186Z" fill="#297ea6" stroke="#297ea6"></path><path d="M791 490L833 404L730 425Z" fill="#297ea6" stroke="#297ea6"></path><path d="M723 528L827 600L791 490Z" fill="#112e42" stroke="#112e42"></path><path d="M593 600L701 600L602 501Z" fill="#00101c" stroke="#00101c"></path><path d="M0 190L0 308L97 227Z" fill="#19435d" stroke="#19435d"></path><path d="M70 386L0 432L99 486Z" fill="#246688" stroke="#246688"></path><path d="M0 75L0 190L99 64Z" fill="#112e42" stroke="#112e42"></path><path d="M99 64L0 190L97 227Z" fill="#00101c" stroke="#00101c"></path><path d="M900 333L900 215L770 296Z" fill="#112e42" stroke="#112e42"></path><path d="M801 139L817 0L737 62Z" fill="#112e42" stroke="#112e42"></path><path d="M737 62L817 0L678 0Z" fill="#00101c" stroke="#00101c"></path><path d="M0 308L0 432L70 386Z" fill="#1d4e6b" stroke="#1d4e6b"></path><path d="M99 486L84 600L221 502Z" fill="#15384f" stroke="#15384f"></path><path d="M833 404L900 333L770 296Z" fill="#0c2435" stroke="#0c2435"></path><path d="M900 415L900 333L833 404Z" fill="#205a7a" stroke="#205a7a"></path><path d="M900 103L817 0L801 139Z" fill="#0c2435" stroke="#0c2435"></path><path d="M0 0L0 75L99 64Z" fill="#297ea6" stroke="#297ea6"></path><path d="M0 501L84 600L99 486Z" fill="#00101c" stroke="#00101c"></path><path d="M900 495L833 404L791 490Z" fill="#112e42" stroke="#112e42"></path><path d="M900 495L900 415L833 404Z" fill="#297ea6" stroke="#297ea6"></path><path d="M900 215L900 103L801 139Z" fill="#1d4e6b" stroke="#1d4e6b"></path><path d="M0 432L0 501L99 486Z" fill="#15384f" stroke="#15384f"></path><path d="M701 600L827 600L723 528Z" fill="#15384f" stroke="#15384f"></path><path d="M827 600L900 495L791 490Z" fill="#081a28" stroke="#081a28"></path><path d="M138 0L0 0L99 64Z" fill="#15384f" stroke="#15384f"></path><path d="M900 103L900 0L817 0Z" fill="#112e42" stroke="#112e42"></path><path d="M0 501L0 600L84 600Z" fill="#297ea6" stroke="#297ea6"></path><path d="M827 600L900 600L900 495Z" fill="#081a28" stroke="#081a28"></path></g></svg>